<?xml version="1.0" standalone="no"?>
<!DOCTYPE svg PUBLIC "-//W3C//DTD SVG 20010904//EN"
 "http://www.w3.org/TR/2001/REC-SVG-20010904/DTD/svg10.dtd">
<svg version="1.0" xmlns="http://www.w3.org/2000/svg"
 width="1280.000000pt" height="1280.000000pt" viewBox="0 0 1280.000000 1280.000000"
 preserveAspectRatio="xMidYMid meet">

<g transform="translate(0.000000,1280.000000) scale(0.100000,-0.100000)"
fill="#000000" stroke="none">
<path d="M6571 11509 c-111 -22 -193 -135 -176 -245 l6 -42 -53 -17 c-101 -33
-187 -97 -256 -189 -48 -66 -102 -170 -102 -199 0 -10 -14 -47 -31 -83 -30
-61 -31 -70 -25 -142 3 -42 6 -103 6 -136 -1 -42 6 -73 23 -110 37 -78 38 -82
12 -106 -50 -47 -54 -126 -9 -212 23 -45 35 -23 14 25 -11 23 -20 64 -20 90 0
40 5 53 29 78 16 16 34 29 40 29 7 0 11 -28 11 -73 0 -103 17 -181 55 -256
l33 -66 -38 -43 c-20 -24 -52 -70 -71 -103 -19 -32 -38 -59 -42 -59 -4 0 -51
-20 -105 -44 -53 -24 -133 -54 -177 -66 -44 -12 -96 -31 -116 -41 -89 -45
-185 -177 -233 -319 -44 -133 -113 -363 -177 -593 l-10 -38 -132 3 -132 3 -3
27 c-6 47 -92 49 -92 2 l0 -24 -208 0 c-115 0 -304 3 -420 7 l-212 6 0 193 c0
183 -1 194 -20 204 -11 6 -20 20 -20 31 0 23 -34 39 -69 32 -34 -6 -41 -11
-41 -31 0 -10 -9 -25 -20 -35 -19 -16 -20 -29 -20 -205 l0 -189 -75 -6 c-55
-4 -88 -13 -121 -31 -29 -16 -62 -26 -87 -26 -88 0 -133 -63 -162 -226 -25
-142 -17 -250 26 -346 22 -47 54 -71 113 -83 27 -6 28 -8 22 -43 -3 -20 -6
-162 -6 -314 l0 -277 -32 -3 c-30 -3 -48 -26 -280 -358 l-246 -355 -1 -92 c-1
-63 3 -93 11 -95 7 -3 450 -2 985 0 l973 5 0 -25 c0 -23 -4 -25 -99 -36 -350
-41 -543 -281 -543 -676 0 -359 154 -585 452 -662 91 -24 321 -24 410 -1 74
20 173 65 209 94 23 19 24 22 12 52 -8 17 -17 34 -22 37 -5 3 -37 -11 -72 -30
-78 -44 -198 -76 -283 -76 -204 0 -334 127 -386 377 -17 82 -19 122 -15 243 8
221 56 350 168 454 50 47 125 86 162 86 17 0 -1 -199 -34 -383 -17 -94 -32
-199 -32 -232 l-2 -60 112 -37 c61 -20 196 -53 300 -72 103 -19 239 -52 301
-73 l112 -37 0 -132 0 -131 -72 -24 c-50 -16 -74 -30 -76 -42 -3 -16 16 -17
293 -17 277 0 296 1 293 17 -2 13 -24 24 -71 37 l-67 20 0 113 0 113 30 0 c40
0 53 22 110 188 l48 137 183 0 184 0 3 -273 c2 -213 0 -273 -10 -276 -72 -21
-138 -51 -138 -62 0 -12 52 -14 301 -14 281 0 300 1 297 18 -2 12 -24 23 -76
37 l-72 20 0 587 0 587 72 23 c50 16 74 29 76 41 3 16 -16 17 -298 17 -276 0
-301 -1 -298 -17 2 -11 27 -23 76 -37 l72 -21 0 -267 0 -268 -170 0 c-148 0
-170 2 -170 16 0 8 11 64 25 123 23 99 54 299 70 446 4 33 9 68 11 77 5 17 86
18 1477 20 l1472 3 3 92 3 92 -217 273 c-119 150 -242 306 -273 346 l-56 72
-659 -2 -660 -2 -22 90 c-13 49 -26 99 -29 111 -8 24 -2 26 120 43 121 16 266
49 384 86 241 75 261 93 261 235 0 98 -38 314 -95 539 -91 362 -283 962 -341
1066 -69 123 -159 188 -329 239 -209 61 -213 64 -232 103 -9 20 -46 66 -81
104 l-64 67 26 34 c14 18 32 50 41 70 18 43 20 140 4 187 -8 23 -9 34 -1 39
20 12 81 124 104 190 19 56 23 86 22 196 0 209 -51 345 -179 484 -43 45 -52
60 -40 65 21 8 45 67 45 108 0 97 -56 169 -173 223 -81 37 -141 47 -206 34z
m203 -58 c108 -53 168 -141 152 -225 -4 -20 -18 -44 -32 -55 l-26 -20 -59 29
c-87 44 -177 62 -289 58 l-95 -3 -3 49 c-4 67 3 89 41 132 72 83 188 96 311
35z m-257 -286 c-15 -63 3 -113 65 -182 57 -65 98 -143 98 -187 l0 -30 -32 31
c-66 62 -204 111 -339 120 -100 7 -139 -3 -219 -56 -30 -20 -60 -39 -67 -44
-27 -17 16 83 68 159 93 136 254 230 400 233 l36 1 -10 -45z m194 29 c120 -35
158 -86 159 -208 0 -85 -23 -129 -102 -198 l-55 -46 -11 56 c-15 83 -35 123
-90 183 -63 69 -72 88 -72 144 0 70 12 85 69 85 26 0 72 -7 102 -16z m212
-146 c43 -88 60 -160 47 -207 -21 -79 -101 -140 -182 -141 -75 0 -74 7 10 89
74 71 81 80 92 135 11 56 9 120 -6 159 -3 9 -2 17 3 17 5 0 21 -24 36 -52z
m106 -128 c42 -78 64 -162 75 -286 6 -63 4 -78 -18 -128 -14 -31 -28 -56 -32
-56 -4 0 -39 31 -78 68 -39 38 -105 88 -146 113 l-75 44 58 7 c79 10 137 51
166 117 25 59 26 91 6 157 -8 27 -15 51 -15 54 0 12 23 -23 59 -90z m-624 -40
c106 -24 204 -69 239 -111 37 -44 32 -49 -21 -22 -176 86 -522 62 -647 -46
-43 -37 13 45 62 91 112 105 197 125 367 88z m128 -126 c34 -8 65 -19 69 -22
4 -4 -39 -7 -95 -7 -113 0 -87 9 -307 -107 -107 -57 -226 -105 -236 -95 -3 2
-8 30 -11 61 -5 46 -2 60 12 76 23 26 108 74 158 90 100 32 295 34 410 4z m72
-59 l40 -13 -50 -1 c-88 -2 -140 -34 -328 -201 -110 -98 -220 -173 -247 -168
-35 7 -76 141 -52 173 4 6 32 18 62 29 71 24 184 77 262 124 116 69 220 88
313 57z m158 -62 c77 -66 208 -256 229 -331 11 -38 3 -86 -13 -77 -5 4 -28 43
-51 88 -75 151 -138 255 -184 306 -54 60 -44 67 19 14z m-119 18 c17 -6 14
-10 -20 -31 -21 -13 -82 -56 -134 -95 -173 -131 -290 -200 -390 -229 -62 -17
-61 -15 42 53 32 20 103 79 159 130 169 154 265 203 343 172z m143 -130 c19
-29 73 -127 119 -217 70 -136 84 -171 84 -210 0 -67 -17 -115 -63 -175 -27
-37 -36 -54 -27 -57 24 -8 99 -83 130 -130 17 -25 39 -74 50 -108 23 -76 56
-289 75 -485 16 -164 38 -764 31 -849 -2 -30 -4 -168 -5 -306 l-1 -251 -41
-12 c-23 -7 -42 -11 -44 -9 -1 2 2 127 7 278 17 509 -10 1193 -58 1470 -8 47
-26 121 -41 165 -28 87 -90 215 -104 215 -15 0 -10 -23 11 -55 36 -54 24 -59
-47 -20 -38 20 -79 45 -92 56 l-23 19 36 53 c37 53 105 200 106 227 1 11 4 10
15 -4 20 -26 19 -119 -1 -157 -8 -17 -31 -48 -51 -70 -42 -47 -36 -65 8 -23
57 54 84 112 83 179 -1 68 -15 98 -119 259 -68 104 -120 224 -130 297 l-6 44
31 -35 c18 -19 48 -59 67 -89z m-108 37 c18 -71 79 -202 131 -277 l42 -62 -94
6 c-94 7 -156 -4 -143 -26 4 -5 23 -9 43 -8 21 1 77 2 125 1 70 -2 89 -5 94
-18 8 -22 -62 -191 -105 -256 -62 -92 -205 -213 -304 -258 -72 -33 -136 -23
-192 28 -38 35 -118 157 -163 248 -31 63 -36 86 -43 174 -10 157 -14 150 95
184 l93 29 77 -42 c42 -24 79 -40 82 -38 12 13 -20 45 -66 67 -28 13 -51 26
-51 30 0 3 19 14 43 25 67 29 176 109 247 180 35 36 67 65 70 65 4 0 12 -24
19 -52z m295 -69 c46 -52 81 -75 91 -59 3 5 11 10 16 10 12 0 5 -24 -28 -100
l-24 -55 -40 80 c-21 44 -64 113 -94 153 -30 40 -55 76 -55 78 0 12 96 -65
134 -107z m-473 3 c-36 -29 -100 -71 -90 -58 11 12 112 86 118 86 3 0 -9 -13
-28 -28z m-379 -728 c-60 -119 -109 -317 -139 -564 -12 -98 -16 -287 -20 -875
l-5 -750 -26 -27 c-14 -16 -29 -28 -34 -28 -11 0 -10 1210 2 1455 14 289 67
581 129 704 28 55 109 156 118 147 2 -2 -9 -30 -25 -62z m651 27 c23 -15 74
-44 113 -64 l71 -36 27 -83 c26 -84 33 -128 18 -128 -4 0 -98 -15 -208 -34
-187 -31 -253 -50 -269 -77 -12 -18 4 -23 22 -6 29 25 59 33 256 66 103 18
194 34 201 37 19 7 22 -9 37 -158 l12 -127 -44 -58 c-74 -97 -338 -355 -447
-436 -92 -69 -106 -76 -125 -65 -79 41 -297 241 -391 357 -50 63 -52 68 -49
116 5 64 32 275 38 295 5 14 16 14 119 0 62 -8 121 -21 130 -29 22 -18 34 -5
14 15 -10 10 -56 21 -129 31 -63 8 -117 18 -121 22 -17 15 84 339 111 356 4 2
25 -21 47 -53 75 -109 175 -142 275 -92 61 32 146 90 199 138 25 23 46 41 48
42 2 0 22 -13 45 -29z m408 -172 c35 -12 65 -23 66 -24 2 -1 -13 -33 -32 -71
-19 -38 -40 -87 -47 -109 l-11 -40 -22 111 c-13 61 -26 121 -30 133 -8 26 -4
26 76 0z m-1217 -46 c-7 -27 -18 -67 -24 -90 -6 -25 -15 -41 -23 -38 -6 2 -27
6 -44 9 -48 8 -40 -11 8 -21 22 -4 40 -10 41 -13 2 -9 -24 -185 -29 -200 -3
-9 -16 12 -30 49 -30 81 -84 264 -78 269 9 9 171 82 181 82 9 0 8 -13 -2 -47z
m1292 -54 c-19 -35 -46 -95 -61 -133 -26 -71 -43 -102 -30 -56 28 100 108 270
121 257 2 -2 -12 -32 -30 -68z m169 17 c113 -52 194 -161 258 -346 200 -578
367 -1232 367 -1433 0 -113 -22 -134 -210 -195 -251 -82 -519 -127 -840 -141
-147 -7 -182 -12 -220 -29 -64 -31 -156 -30 -218 2 -123 62 -257 73 -386 31
-84 -27 -186 -46 -186 -34 0 4 40 30 89 59 89 51 190 80 276 80 40 0 65 9 65
22 0 6 -23 7 -62 3 -149 -15 -180 -25 -314 -101 -73 -41 -139 -74 -148 -74
-15 0 -24 30 -8 30 4 0 43 32 87 71 98 87 155 115 263 127 46 6 86 13 89 16
16 16 -14 18 -98 7 -106 -14 -165 -40 -243 -109 -129 -115 -136 -120 -136
-102 0 17 91 109 170 171 32 25 83 47 177 78 l131 42 122 -42 c199 -67 301
-84 376 -60 16 5 74 22 129 36 201 54 326 98 456 162 176 85 251 113 327 120
34 3 62 10 62 16 0 6 -27 8 -73 4 l-72 -6 -39 137 c-44 154 -187 585 -235 707
-32 82 -73 146 -87 133 -4 -4 5 -25 20 -46 24 -35 66 -175 66 -220 0 -29 -59
69 -91 153 -40 102 -119 378 -119 414 0 55 97 297 135 334 21 21 43 18 120
-17z m-1637 -112 c16 -54 45 -140 64 -190 33 -88 34 -93 26 -185 -4 -52 -10
-424 -12 -826 -3 -776 -4 -785 -48 -768 -10 4 -43 44 -74 89 -69 98 -118 155
-156 180 -20 13 -27 24 -23 35 37 89 67 504 47 646 -9 72 -6 88 70 368 25 91
45 8 23 -98 -25 -125 -30 -276 -11 -376 33 -176 47 -309 53 -516 3 -128 10
-213 16 -213 6 0 8 86 4 238 -4 203 -10 264 -37 427 -30 181 -31 194 -20 300
6 60 20 149 31 197 83 381 90 483 44 653 -33 119 -40 152 -32 144 4 -3 20 -50
35 -105z m-46 31 c56 -182 60 -294 19 -500 -26 -128 -29 -138 -39 -112 -24 58
-38 32 -98 -198 -21 -77 -38 -141 -39 -143 -1 -1 -22 7 -47 18 -36 16 -78 21
-197 27 -90 3 -151 10 -151 16 0 16 104 377 151 522 59 184 92 248 169 326 51
52 78 70 125 87 33 11 67 20 75 19 8 -1 22 -27 32 -62z m1322 -397 c10 -123
19 -1018 11 -1193 l-7 -164 -52 -14 c-28 -8 -96 -27 -151 -42 -73 -20 -113
-26 -150 -22 -54 6 -188 43 -298 82 -86 32 -97 31 -198 -5 -46 -16 -103 -34
-126 -40 -23 -6 -55 -21 -71 -35 l-29 -24 -6 396 c-3 217 -3 532 0 700 l6 305
55 -64 c128 -146 363 -348 406 -348 23 0 175 112 271 201 86 79 218 216 276
286 24 29 47 53 50 53 4 0 10 -33 13 -72z m-3166 -65 c2 -9 -8 -13 -32 -13
-26 0 -36 4 -36 16 0 19 61 16 68 -3z m3395 -259 c14 -27 40 -69 56 -94 38
-55 38 -70 11 -355 -35 -358 -66 -524 -99 -525 -3 0 -16 -3 -27 -6 l-21 -6 -7
584 c-3 321 -8 606 -11 633 -5 42 1 32 34 -66 21 -63 50 -137 64 -165z m-3358
31 l0 -180 -49 -3 c-101 -7 -96 -16 -96 182 0 95 3 176 7 180 4 4 37 6 73 4
l65 -3 0 -180z m3538 -312 c108 -329 161 -509 152 -523 -3 -5 -12 -10 -19 -10
-7 0 -72 -29 -146 -65 -73 -36 -135 -63 -137 -62 -2 2 1 26 6 54 23 118 80
662 81 766 0 25 14 -11 63 -160z m-2607 97 c-5 -32 -3 -40 9 -40 8 0 15 5 15
11 0 15 556 3 615 -13 l40 -11 -51 -12 c-28 -6 -67 -20 -85 -31 -32 -19 -47
-19 -279 -13 -135 4 -550 11 -922 15 -373 4 -678 11 -678 15 0 14 53 49 89 58
34 9 101 14 162 12 18 -1 28 -8 32 -21 8 -30 81 -28 101 3 l15 22 433 -6 c306
-5 433 -10 436 -18 8 -24 22 -9 22 22 0 39 6 47 33 47 17 0 19 -5 13 -40z
m-968 -7 c-2 -12 -13 -18 -33 -18 -20 0 -31 6 -33 18 -3 14 4 17 33 17 29 0
36 -3 33 -17z m-398 -67 c0 -8 -14 -48 -30 -90 -56 -140 -58 -312 -5 -433 14
-30 22 -60 19 -65 -9 -14 -63 -2 -86 18 -48 45 -75 196 -58 326 21 149 62 241
114 251 40 8 46 7 46 -7z m2086 -28 c4 -13 7 -113 7 -223 -1 -156 -6 -226 -22
-317 -28 -158 -39 -184 -88 -197 -82 -23 -78 -33 -78 162 0 94 -2 257 -5 362
l-5 190 55 22 c74 30 126 30 136 1z m-592 -28 c203 -5 363 -13 368 -18 6 -6
12 -152 15 -346 5 -264 3 -339 -7 -351 -9 -11 -33 -15 -100 -15 l-87 0 -7 46
c-3 26 -6 105 -6 175 0 112 -2 129 -16 129 -15 0 -15 -18 -9 -175 7 -171 7
-175 -13 -175 -28 0 -36 12 -93 151 -65 159 -80 183 -133 208 -40 20 -59 21
-355 21 -207 0 -327 -4 -352 -11 -49 -15 -88 -57 -99 -105 -11 -45 -15 -658
-5 -673 3 -6 13 -11 21 -11 26 0 234 110 246 130 12 19 24 20 168 20 85 0 280
-3 433 -7 260 -6 277 -7 277 -25 0 -14 -8 -18 -34 -18 -42 0 -89 -16 -146 -51
-25 -15 -64 -33 -87 -40 -24 -7 -43 -16 -43 -21 0 -4 56 -8 125 -8 l126 0 -38
-46 -38 -46 -325 6 c-298 6 -557 14 -1077 32 l-193 7 0 572 c0 315 3 594 7
620 l6 47 556 -7 c306 -3 717 -10 915 -15z m-1506 -347 c-3 -93 -4 -97 -17
-68 -20 42 -21 244 -1 310 l15 50 3 -97 c1 -54 1 -142 0 -195z m862 -332 c0
-170 -3 -317 -6 -326 -5 -13 -210 -125 -229 -125 -8 0 -4 579 4 638 5 32 16
61 28 73 28 28 89 48 151 49 l52 0 0 -309z m463 301 c85 -7 90 -9 120 -42 20
-22 51 -83 81 -160 54 -138 76 -170 117 -170 20 0 36 -12 68 -54 40 -52 42
-57 39 -116 l-3 -63 -425 2 c-316 2 -426 5 -432 14 -9 15 -11 581 -1 590 8 9
319 7 436 -1z m790 -361 c23 -22 71 -81 106 -131 56 -81 61 -91 40 -88 -15 2
-41 29 -78 80 -55 76 -145 158 -158 144 -4 -4 17 -27 45 -52 29 -26 71 -73 93
-105 22 -33 53 -73 69 -89 36 -37 38 -50 6 -50 -33 0 -110 65 -155 130 -40 58
-132 140 -156 140 -26 0 -16 -14 31 -44 26 -17 69 -60 99 -100 29 -39 62 -80
74 -90 23 -21 29 -66 8 -66 -26 0 -106 74 -163 151 -34 46 -113 104 -125 92
-7 -7 1 -17 25 -31 20 -12 36 -29 36 -38 0 -9 16 -38 35 -64 40 -55 42 -60 17
-60 -11 0 -47 28 -80 62 l-62 63 0 66 0 66 81 6 c50 4 96 14 118 25 49 26 46
27 94 -17z m-365 -39 c4 -27 -14 -29 -28 -3 -14 27 -13 33 8 29 9 -2 18 -13
20 -26z m47 -14 c9 -66 2 -293 -10 -291 -13 4 -19 333 -6 333 5 0 13 -19 16
-42z m150 -236 c39 -11 65 -4 65 16 0 12 8 8 33 -15 59 -56 105 -68 130 -33
12 17 17 18 44 8 41 -15 67 3 61 44 -4 23 -1 28 18 28 21 0 28 -11 48 -74 5
-14 10 -16 18 -8 7 7 17 8 29 2 11 -6 28 -6 49 1 18 7 35 8 40 3 12 -12 -86
-167 -208 -334 -137 -187 -184 -284 -222 -459 -26 -118 -64 -326 -85 -461 -21
-137 -53 -274 -76 -328 -11 -24 -19 -51 -19 -60 1 -27 26 12 50 74 20 55 63
257 75 357 4 31 10 57 14 57 3 0 36 -8 74 -17 l67 -17 0 -443 0 -442 -87 30
c-105 35 -213 61 -348 84 -161 26 -375 89 -375 109 1 16 36 228 56 331 9 50
20 142 23 205 l6 115 85 -1 c66 0 97 -5 138 -24 63 -27 82 -51 82 -105 1 -22
9 -74 18 -115 l18 -75 37 -3 c20 -2 37 0 37 5 0 4 7 67 14 138 16 150 19 144
-73 199 -75 45 -146 67 -260 80 l-96 11 -3 110 c-7 250 23 427 99 577 42 83
130 208 177 250 34 31 47 36 109 41 90 9 100 13 119 49 22 42 10 46 -25 9 -31
-34 -75 -44 -64 -14 5 13 2 15 -17 10 -17 -4 -20 -3 -11 6 6 6 11 46 11 96 l0
85 48 -47 c26 -26 61 -51 77 -55z m908 -4 c65 -54 91 -83 121 -133 28 -46 66
-157 66 -192 0 -22 14 -31 23 -15 3 4 -3 39 -13 77 -10 39 -17 71 -15 73 7 7
77 -101 118 -183 44 -86 58 -137 72 -252 4 -29 12 -53 17 -53 13 0 2 119 -18
197 -33 127 -154 304 -319 467 l-60 59 45 -6 c82 -11 144 -36 260 -103 123
-71 250 -133 315 -154 22 -7 93 -34 157 -61 64 -27 174 -65 245 -85 70 -19
154 -42 185 -51 69 -19 90 -40 92 -90 l1 -38 -72 -7 c-42 -4 -129 -26 -205
-52 -152 -51 -378 -109 -489 -126 -89 -13 -197 -2 -297 30 -39 12 -74 17 -90
13 -41 -10 -127 -67 -151 -101 -34 -49 -68 -133 -75 -187 -47 -387 -69 -525
-107 -687 l-21 -88 -94 0 -94 0 2 266 3 266 40 13 c21 8 41 12 44 10 5 -5 -27
-314 -36 -352 -4 -17 -1 -23 11 -23 9 0 16 8 16 18 1 60 41 366 49 376 6 7 8
28 5 47 -7 45 21 300 41 365 27 93 63 160 151 290 47 70 97 150 110 177 26 58
39 141 30 192 -10 51 -30 45 -23 -7 12 -89 -33 -213 -111 -311 -75 -94 -138
-207 -176 -320 -12 -35 -56 -344 -56 -393 0 -2 -122 -4 -270 -4 l-270 0 4 23
c3 12 19 94 36 182 52 267 89 354 230 546 87 118 202 290 220 330 10 22 23 29
72 39 32 6 92 22 131 35 40 13 78 24 86 25 7 0 36 -19 64 -42z m941 0 c19 -64
43 -188 38 -192 -3 -3 -32 -6 -64 -6 l-59 0 2 92 c3 123 4 128 44 128 25 0 34
-5 39 -22z m-219 2 c3 -6 3 -53 -1 -105 l-7 -95 -47 0 c-27 0 -74 11 -111 26
-77 31 -229 114 -229 126 0 4 18 8 40 8 23 0 55 8 73 17 45 24 270 42 282 23z
m115 -49 c0 -32 -3 -79 -6 -105 l-7 -47 -41 3 -40 3 3 95 c1 52 5 98 7 102 3
5 23 8 45 8 l39 0 0 -59z m-1938 -14 c4 -6 3 -14 -3 -18 -5 -3 -7 -13 -3 -22
5 -15 -5 -17 -95 -17 -56 0 -101 2 -101 4 0 8 72 49 109 62 38 14 81 10 93 -9z
m-1762 -261 c0 -103 3 -138 14 -149 17 -16 35 -17 746 -47 731 -31 693 -28
686 -54 -15 -52 -26 -124 -32 -211 l-7 -95 -964 0 c-769 0 -963 3 -957 13 4 6
111 162 238 345 280 405 276 402 276 198z m615 93 c215 -6 396 -12 403 -14 9
-3 12 -39 12 -135 l0 -132 -97 6 c-54 4 -206 11 -338 16 -442 18 -500 21 -532
26 l-33 5 0 126 0 125 98 -6 c53 -3 273 -11 487 -17z m4712 -166 c283 -356
373 -471 373 -477 0 -3 -646 -6 -1436 -6 -1238 0 -1435 2 -1431 14 19 48 63
99 109 126 63 35 86 37 170 9 38 -12 102 -23 163 -26 91 -5 115 -2 260 32 88
21 234 61 325 90 100 32 194 56 238 60 82 8 96 20 83 76 -19 79 -28 85 -177
122 -178 45 -292 84 -414 140 -25 12 55 13 1321 25 l267 2 149 -187z m-3928
143 c106 -3 196 -7 198 -10 3 -2 -9 -25 -26 -50 -17 -25 -49 -82 -71 -127
l-40 -83 -128 3 c-70 2 -161 6 -202 10 l-75 6 -3 119 c-1 66 -1 125 2 132 3 9
26 11 78 8 40 -2 160 -6 267 -8z m11 -721 l0 -75 -970 0 -970 0 0 75 0 75 970
0 970 0 0 -75z m4305 8 c0 -34 -4 -65 -8 -70 -5 -4 -663 -9 -1463 -12 l-1455
-3 5 33 c3 19 8 51 11 71 l6 38 817 3 c449 1 1103 2 1452 2 l635 0 0 -62z
m-3095 -876 c0 -11 -81 -239 -96 -269 -13 -28 -24 -38 -41 -38 l-23 0 0 155 0
155 80 0 c44 0 80 -1 80 -3z"/>
<path d="M7021 9675 c-1 -24 14 -50 22 -38 3 4 -1 19 -9 33 -12 22 -13 23 -13
5z"/>
<path d="M7058 9535 c2 -14 8 -25 13 -25 10 0 11 12 3 34 -10 25 -22 19 -16
-9z"/>
<path d="M7081 9408 c0 -7 4 -22 9 -33 7 -17 9 -15 9 13 1 17 -3 32 -9 32 -5
0 -10 -6 -9 -12z"/>
<path d="M7100 9276 c0 -14 5 -26 10 -26 6 0 10 9 10 19 0 11 -4 23 -10 26 -6
4 -10 -5 -10 -19z"/>
<path d="M7110 9141 c0 -11 5 -23 10 -26 6 -4 10 5 10 19 0 14 -4 26 -10 26
-5 0 -10 -9 -10 -19z"/>
<path d="M7120 9026 c0 -14 5 -26 10 -26 6 0 10 9 10 19 0 11 -4 23 -10 26 -6
4 -10 -5 -10 -19z"/>
<path d="M7126 8881 c-4 -5 -2 -20 3 -33 9 -21 10 -21 10 10 1 32 -3 39 -13
23z"/>
<path d="M7130 8695 c0 -14 5 -25 10 -25 6 0 10 11 10 25 0 14 -4 25 -10 25
-5 0 -10 -11 -10 -25z"/>
<path d="M7130 8540 c0 -11 5 -20 10 -20 6 0 10 9 10 20 0 11 -4 20 -10 20 -5
0 -10 -9 -10 -20z"/>
<path d="M7135 8428 c-4 -10 -4 -26 0 -35 8 -17 8 -17 12 0 3 9 3 25 0 35 -4
16 -4 16 -12 0z"/>
<path d="M7130 8275 c0 -14 5 -25 10 -25 6 0 10 11 10 25 0 14 -4 25 -10 25
-5 0 -10 -11 -10 -25z"/>
<path d="M7130 8161 c0 -11 5 -23 10 -26 6 -4 10 5 10 19 0 14 -4 26 -10 26
-5 0 -10 -9 -10 -19z"/>
<path d="M7130 8025 c0 -14 5 -25 10 -25 6 0 10 11 10 25 0 14 -4 25 -10 25
-5 0 -10 -11 -10 -25z"/>
<path d="M7130 7921 c0 -11 5 -23 10 -26 6 -4 10 5 10 19 0 14 -4 26 -10 26
-5 0 -10 -9 -10 -19z"/>
<path d="M7130 7805 c0 -14 5 -25 10 -25 6 0 10 11 10 25 0 14 -4 25 -10 25
-5 0 -10 -11 -10 -25z"/>
<path d="M6166 10281 c-12 -19 23 -80 56 -101 32 -19 99 -27 132 -14 31 12 15
23 -41 30 -52 6 -63 11 -100 51 -23 24 -44 39 -47 34z"/>
<path d="M6610 10115 c0 -22 60 -55 100 -55 41 0 100 33 100 56 0 11 -5 14
-17 9 -56 -23 -83 -25 -125 -10 -54 18 -58 19 -58 0z"/>
<path d="M6352 9944 c2 -9 19 -25 38 -37 39 -22 90 -19 126 7 30 22 11 28 -36
11 -48 -17 -69 -14 -95 15 -22 24 -38 26 -33 4z"/>
<path d="M6230 9936 c0 -8 12 -29 27 -47 16 -18 27 -40 25 -50 -4 -26 62 -87
103 -95 42 -8 125 20 125 42 0 12 -5 12 -36 -1 -58 -24 -98 -19 -139 16 -46
41 -44 50 8 32 62 -23 211 -23 233 -1 20 19 12 37 -8 20 -23 -18 -81 -24 -145
-13 -82 13 -130 37 -156 77 -23 36 -37 43 -37 20z"/>
<path d="M6037 9648 c-4 -12 -4 -24 -1 -27 6 -7 24 20 24 37 0 21 -17 13 -23
-10z"/>
<path d="M6018 9584 c-5 -4 -8 -16 -8 -28 0 -14 3 -17 11 -9 6 6 9 19 7 28 -1
9 -6 13 -10 9z"/>
<path d="M5987 9480 c-3 -11 -1 -23 4 -26 5 -3 9 -1 9 5 0 5 3 16 6 25 3 9 2
16 -4 16 -5 0 -12 -9 -15 -20z"/>
<path d="M5978 9414 c-5 -4 -8 -16 -8 -28 0 -14 3 -17 11 -9 6 6 9 19 7 28 -1
9 -6 13 -10 9z"/>
<path d="M5955 9307 c-4 -10 -5 -21 -1 -24 10 -10 18 4 13 24 -4 17 -4 17 -12
0z"/>
<path d="M5947 9243 c-11 -10 -8 -43 3 -43 6 0 10 11 10 25 0 26 -2 29 -13 18z"/>
<path d="M5930 9130 c0 -11 5 -20 10 -20 6 0 10 9 10 20 0 11 -4 20 -10 20 -5
0 -10 -9 -10 -20z"/>
<path d="M5930 9049 c0 -11 5 -17 10 -14 6 3 10 13 10 21 0 8 -4 14 -10 14 -5
0 -10 -9 -10 -21z"/>
<path d="M5930 8959 c0 -11 5 -17 10 -14 6 3 10 13 10 21 0 8 -4 14 -10 14 -5
0 -10 -9 -10 -21z"/>
<path d="M5920 8870 c0 -11 5 -20 10 -20 6 0 10 9 10 20 0 11 -4 20 -10 20 -5
0 -10 -9 -10 -20z"/>
<path d="M5920 8764 c0 -14 4 -23 10 -19 6 3 10 15 10 26 0 10 -4 19 -10 19
-5 0 -10 -12 -10 -26z"/>
<path d="M5920 8670 c0 -11 5 -20 10 -20 6 0 10 9 10 20 0 11 -4 20 -10 20 -5
0 -10 -9 -10 -20z"/>
<path d="M5914 8559 c-3 -6 -1 -16 5 -22 8 -8 11 -5 11 11 0 24 -5 28 -16 11z"/>
<path d="M5913 8444 c-3 -8 -1 -20 6 -27 8 -8 11 -4 11 16 0 30 -7 35 -17 11z"/>
<path d="M5910 8311 c0 -11 5 -23 10 -26 6 -4 10 5 10 19 0 14 -4 26 -10 26
-5 0 -10 -9 -10 -19z"/>
<path d="M5920 8185 c0 -15 4 -24 10 -20 6 3 10 12 10 20 0 8 -4 17 -10 20 -6
4 -10 -5 -10 -20z"/>
<path d="M5920 8055 c0 -15 4 -24 10 -20 6 3 10 12 10 20 0 8 -4 17 -10 20 -6
4 -10 -5 -10 -20z"/>
<path d="M5920 7936 c0 -22 3 -27 11 -19 8 8 8 16 0 30 -9 16 -10 14 -11 -11z"/>
<path d="M5920 7805 c1 -26 2 -28 11 -12 8 14 8 22 0 30 -8 8 -11 3 -11 -18z"/>
<path d="M5920 7706 c0 -14 5 -26 10 -26 6 0 10 9 10 19 0 11 -4 23 -10 26 -6
4 -10 -5 -10 -19z"/>
<path d="M5920 7585 c0 -15 4 -24 10 -20 6 3 10 12 10 20 0 8 -4 17 -10 20 -6
4 -10 -5 -10 -20z"/>
<path d="M4049 8390 c-20 -13 -19 -167 1 -181 9 -5 179 -9 387 -9 325 0 374 2
387 16 18 17 23 128 7 153 -5 7 -28 15 -52 17 -106 9 -717 12 -730 4z m758
-34 c3 -3 8 -28 11 -56 8 -83 20 -80 -307 -80 -157 0 -323 3 -368 7 l-83 6 0
70 0 70 371 -6 c204 -3 373 -8 376 -11z"/>
<path d="M3710 7688 c-59 -41 -75 -72 -75 -148 0 -74 14 -103 69 -144 38 -29
114 -29 153 0 50 37 73 81 73 142 0 130 -124 215 -220 150z m114 -12 c93 -39
115 -167 40 -241 -28 -28 -42 -35 -75 -35 -56 0 -95 23 -120 72 -48 94 10 205
114 217 4 1 22 -5 41 -13z"/>
<path d="M5455 7303 c-27 -36 -69 -82 -93 -102 -41 -34 -146 -164 -158 -196
-14 -36 19 -9 61 50 26 35 66 82 91 104 45 39 146 158 165 192 7 14 6 19 -3
19 -7 -1 -35 -30 -63 -67z"/>
<path d="M5447 7203 c-11 -10 -8 -75 3 -68 5 3 7 12 3 20 -6 18 14 45 34 45
12 0 13 -3 4 -14 -9 -11 -9 -16 0 -22 7 -4 9 -3 6 3 -4 6 4 13 18 15 18 4 25
1 26 -11 0 -10 2 -12 6 -3 2 6 10 9 16 5 7 -4 5 2 -3 12 -13 16 -13 18 0 13 8
-2 20 -15 26 -27 8 -16 13 -19 17 -9 12 36 -42 65 -70 37 -8 -8 -13 -8 -17 0
-8 12 -59 15 -69 4z"/>
<path d="M5421 7164 c-1 -7 -10 -14 -21 -17 -27 -7 -35 -33 -20 -62 10 -19 10
-27 1 -39 -17 -20 -6 -51 24 -64 18 -8 25 -8 29 1 2 7 5 0 5 -14 1 -38 25 -55
59 -43 18 7 37 6 55 -1 24 -8 31 -7 43 9 8 11 11 29 8 40 -5 17 -4 18 6 9 9
-8 19 -9 36 -1 29 13 37 34 23 59 -7 14 -7 30 -1 48 11 32 6 43 -25 60 -21 11
-35 -1 -15 -12 4 -3 7 -30 7 -60 0 -44 2 -53 12 -45 10 8 13 6 13 -5 0 -20
-25 -39 -47 -35 -12 2 -19 -4 -21 -19 -4 -24 -29 -49 -39 -39 -4 4 -2 11 6 15
10 7 9 10 -3 14 -9 4 -16 2 -16 -3 0 -12 -27 -13 -32 -1 -1 4 -12 5 -23 0 -18
-7 -18 -8 5 -8 19 -1 22 -3 11 -10 -22 -14 -53 6 -51 32 3 36 1 40 -15 27 -13
-10 -19 -9 -35 5 -15 14 -17 20 -8 26 7 4 16 3 20 -4 5 -8 8 -8 8 -1 0 6 -3
14 -7 18 -11 10 -12 36 -2 36 5 0 9 10 9 23 -1 21 -1 21 -14 4 -11 -14 -16
-15 -22 -6 -4 7 -3 14 3 16 25 9 45 31 40 44 -3 8 -6 9 -6 3z m239 -60 c0 -8
-4 -12 -10 -9 -5 3 -10 10 -10 16 0 5 5 9 10 9 6 0 10 -7 10 -16z"/>
<path d="M5156 6714 c-9 -8 -16 -24 -16 -35 0 -11 -4 -17 -10 -14 -5 3 -10 2
-10 -3 0 -6 -8 -9 -17 -8 -16 1 -18 -9 -19 -72 -2 -63 1 -74 19 -87 11 -8 24
-12 29 -9 4 3 8 -4 8 -14 0 -33 27 -48 62 -34 23 8 35 8 49 -1 25 -16 53 1 57
35 2 20 8 24 26 21 35 -7 53 21 38 60 -8 21 -8 35 -2 41 25 25 2 66 -39 69
-15 1 -21 8 -21 24 0 24 -33 48 -52 37 -17 -11 -68 -12 -68 -2 0 13 -17 9 -34
-8z m141 -69 c3 -22 8 -44 12 -48 4 -4 6 6 3 23 -2 16 0 30 6 30 15 0 59 -39
45 -40 -7 0 -13 5 -13 10 0 20 -16 10 -17 -11 -1 -14 3 -19 12 -15 11 4 12 0
6 -16 -4 -12 -14 -24 -22 -26 -11 -3 -11 -1 1 7 8 6 10 11 5 11 -17 0 -35 -22
-35 -42 0 -12 -8 -18 -24 -18 -14 0 -27 -4 -30 -8 -3 -5 8 -6 25 -4 24 4 29 1
29 -16 0 -20 -35 -40 -47 -28 -4 3 -1 6 6 6 7 0 9 5 6 10 -5 8 -11 7 -21 -1
-19 -15 -46 -4 -42 18 2 12 -4 19 -19 21 -13 2 -23 11 -24 20 0 13 -3 11 -11
-5 -14 -30 -31 -29 -48 2 -11 20 -11 28 -1 38 7 6 12 8 11 2 -5 -22 1 -36 11
-29 8 4 7 9 -2 15 -12 7 -11 9 0 9 11 0 9 4 -5 15 -15 11 -6 24 9 13 11 -8 38
28 33 45 -3 13 0 17 10 13 23 -9 45 5 39 24 -5 16 9 26 47 34 3 0 10 5 14 9
12 11 27 -22 31 -68z m-100 50 c-12 -8 -13 -15 -6 -22 7 -7 7 -13 1 -17 -12
-7 -42 3 -42 14 0 15 27 37 45 37 16 0 16 -1 2 -12z m-49 -67 c4 -22 -17 -33
-24 -13 -5 13 -9 14 -15 4 -10 -17 -21 -7 -14 13 8 19 49 16 53 -4z m202 -88
c0 6 5 8 10 5 15 -9 12 -25 -6 -25 -8 0 -12 -5 -8 -11 4 -7 -1 -10 -12 -7 -11
2 -20 13 -22 26 -3 21 -1 22 17 12 15 -8 21 -8 21 0z m-160 -60 c-8 -14 -8
-20 0 -20 6 0 8 -5 4 -12 -5 -8 -13 -4 -26 11 -20 26 -16 41 13 41 17 0 18 -3
9 -20z"/>
<path d="M5243 6674 c0 -13 4 -24 9 -24 5 0 7 4 3 9 -3 6 3 14 12 20 10 6 16
11 13 11 -34 8 -37 6 -37 -16z"/>
<path d="M5050 5882 c-21 -7 -30 -23 -30 -53 0 -16 6 -26 15 -26 11 0 12 4 4
13 -16 19 -1 54 22 54 15 0 19 -5 15 -17 -3 -10 -1 -25 5 -33 9 -13 10 -13 8
0 -3 28 1 37 16 37 8 0 15 -4 15 -9 0 -4 7 -8 15 -8 18 0 20 16 3 23 -8 3 -7
6 4 6 9 1 20 -8 23 -19 3 -11 11 -20 16 -20 10 0 12 12 3 34 -7 18 -59 22 -69
6 -4 -6 -14 -5 -28 4 -12 8 -29 11 -37 8z"/>
<path d="M5000 5830 c0 -5 -7 -10 -15 -10 -23 0 -38 -36 -24 -61 8 -16 8 -28
-1 -48 -10 -23 -9 -28 15 -48 14 -13 31 -21 36 -18 5 4 9 -3 9 -13 0 -33 27
-48 62 -34 22 8 35 8 48 0 21 -13 48 -5 56 17 9 23 -6 33 -17 12 -6 -9 -18
-17 -27 -17 -15 0 -15 2 -2 11 11 8 8 9 -13 4 -16 -3 -35 -1 -42 5 -10 8 -15
8 -21 -1 -4 -8 -3 -9 4 -5 7 4 12 2 12 -3 0 -16 -26 -13 -40 4 -10 12 -10 18
0 30 9 11 9 15 1 15 -7 0 -9 6 -6 13 4 6 0 4 -8 -5 -19 -24 -36 -22 -41 5 -6
32 -3 67 6 67 4 0 8 10 8 22 0 17 -3 19 -12 10 -17 -17 -33 -15 -18 3 7 8 19
15 26 15 8 0 14 9 14 20 0 11 -2 20 -5 20 -3 0 -5 -4 -5 -10z"/>
<path d="M5200 5819 c0 -5 9 -14 20 -21 11 -7 20 -19 20 -27 0 -11 -4 -9 -15
5 -14 19 -14 18 -15 -3 0 -13 4 -23 9 -23 14 0 7 -30 -10 -41 -8 -5 -9 -9 -3
-9 5 0 15 5 22 12 9 9 12 7 12 -10 0 -28 -25 -39 -77 -35 -24 2 -43 0 -43 -4
0 -5 18 -8 40 -6 22 1 40 -2 40 -7 0 -16 49 12 56 32 3 10 0 25 -6 33 -10 12
-10 22 0 45 9 23 10 33 1 44 -14 17 -51 28 -51 15z"/>
<path d="M4990 5699 c0 -5 5 -7 10 -4 6 3 10 8 10 11 0 2 -4 4 -10 4 -5 0 -10
-5 -10 -11z"/>
<path d="M6606 7211 c-8 -13 76 -67 222 -144 99 -52 112 -62 107 -81 -6 -20
-5 -20 8 -3 13 16 53 15 43 -2 -2 -3 14 -7 35 -8 22 0 45 -6 53 -12 7 -6 15
-8 18 -5 8 8 58 -41 58 -57 0 -8 -6 -5 -15 7 -14 19 -14 18 -15 -3 0 -13 4
-23 9 -23 5 0 8 -8 6 -17 -1 -10 -10 -17 -19 -17 -22 2 -20 -3 5 -17 13 -7 19
-7 15 -1 -3 6 -2 13 4 17 16 10 12 -31 -5 -45 -11 -9 -18 -10 -29 -1 -10 9
-15 8 -19 -2 -4 -12 15 -15 59 -9 18 3 24 30 13 56 -8 17 -8 29 0 44 14 26 4
51 -23 62 -14 6 2 9 54 10 83 0 123 8 114 21 -3 5 -48 8 -100 8 -57 0 -101 4
-109 11 -7 6 -35 12 -62 14 -26 1 -74 14 -106 28 -58 28 -227 121 -284 158
-19 13 -34 17 -37 11z"/>
<path d="M6035 7189 c-9 -28 1 -35 15 -10 6 12 17 21 25 21 18 0 20 -17 3 -22
-7 -3 9 -5 35 -5 36 0 47 4 43 14 -3 7 -1 13 4 13 5 0 12 -9 15 -20 7 -22 25
-27 25 -7 0 32 -53 50 -77 26 -8 -8 -13 -8 -17 0 -13 20 -64 13 -71 -10z"/>
<path d="M5994 7147 c-10 -6 -22 -15 -26 -20 -7 -12 1 -39 16 -49 8 -5 7 -11
-2 -20 -21 -21 -15 -66 11 -74 36 -13 64 -4 52 16 -6 9 -9 9 -15 0 -10 -16
-38 -6 -46 15 -9 22 5 33 17 15 8 -11 9 -7 4 14 -4 19 -2 32 7 37 9 6 10 9 1
9 -7 0 -10 7 -6 18 5 14 3 13 -10 -3 -15 -18 -16 -18 -17 -2 0 19 36 38 58 30
6 -3 12 -1 12 5 0 15 -35 21 -56 9z"/>
<path d="M6210 7141 c0 -5 9 -11 20 -14 11 -3 20 -13 19 -24 0 -10 -3 -13 -6
-5 -7 17 -23 15 -23 -3 0 -8 4 -15 10 -15 6 0 6 -9 0 -25 -6 -16 -6 -27 2 -31
7 -4 8 -3 4 4 -4 7 -2 12 3 12 12 0 14 -11 5 -34 -8 -21 -31 -20 -43 2 -9 15
-10 16 -11 0 0 -19 29 -31 53 -22 22 8 28 30 16 58 -8 17 -8 29 0 45 9 15 9
27 1 41 -11 20 -50 28 -50 11z"/>
<path d="M6515 7010 c-11 -5 -39 -6 -61 -3 -36 5 -43 3 -49 -16 -3 -11 -3 -26
0 -32 4 -6 1 -9 -6 -8 -47 9 -72 -28 -49 -71 7 -13 7 -21 0 -25 -14 -9 -13
-48 2 -63 7 -7 20 -12 30 -12 11 0 18 -7 18 -19 0 -32 27 -47 62 -33 23 8 35
8 49 -1 25 -16 53 1 57 35 2 20 8 24 26 21 32 -7 52 21 40 55 -6 18 -7 36 0
54 11 32 -5 58 -38 57 -21 0 -21 0 2 -16 12 -8 22 -20 22 -25 0 -7 -5 -6 -13
0 -10 8 -13 6 -14 -9 -1 -10 3 -19 8 -19 6 0 9 -8 7 -17 -2 -10 -12 -18 -23
-18 -17 0 -21 -8 -23 -46 -3 -39 -7 -48 -30 -58 -26 -12 -26 -12 -8 7 18 21
10 23 -27 7 -10 -4 -23 -2 -31 4 -11 9 -16 9 -22 0 -4 -8 -3 -9 4 -5 7 4 12 2
12 -3 0 -17 -26 -13 -41 5 -11 14 -10 18 6 30 10 8 13 14 7 14 -7 0 -12 8 -13
18 0 13 -3 12 -11 -5 -6 -13 -16 -23 -22 -23 -16 0 -38 38 -26 45 6 3 10 1 10
-5 0 -6 5 -8 11 -4 8 5 8 9 -1 14 -7 5 -9 21 -5 46 5 28 4 35 -4 24 -5 -8 -13
-11 -16 -8 -10 10 2 25 25 31 15 4 24 -1 30 -16 7 -19 9 -16 8 13 -2 47 10 70
35 70 16 0 18 -3 9 -12 -7 -7 -12 -17 -12 -22 0 -6 6 -4 13 4 25 31 42 22 38
-20 -1 -8 5 -5 12 8 7 12 15 21 18 20 2 -2 -2 3 -10 10 -13 10 -13 12 0 12 24
0 36 -14 34 -37 -1 -12 2 -20 7 -17 15 9 8 53 -9 62 -10 5 -27 6 -38 2z m98
-177 c4 8 6 7 6 -3 1 -25 -16 -43 -33 -37 -9 4 -16 16 -16 27 0 17 3 19 19 10
14 -7 21 -6 24 3z"/>
<path d="M6177 6957 c-11 -16 -23 -25 -29 -20 -9 5 -9 8 0 11 7 2 9 8 6 13 -3
6 -11 6 -20 -2 -7 -6 -21 -9 -29 -5 -8 3 -15 1 -15 -4 0 -16 -32 -11 -47 8
-13 16 -14 16 -11 -2 5 -31 33 -42 63 -26 19 10 28 11 37 2 27 -27 73 -2 66
35 -2 14 -6 12 -21 -10z"/>
<path d="M6910 6963 c0 -7 -7 -13 -15 -13 -22 0 -34 -30 -23 -61 7 -19 6 -34
-3 -50 -10 -20 -8 -26 15 -46 15 -13 32 -21 37 -18 5 4 9 -3 9 -13 0 -33 27
-48 63 -34 21 8 35 8 41 2 17 -17 45 -11 56 11 14 25 3 41 -11 16 -6 -9 -18
-17 -27 -17 -13 0 -14 2 -4 9 11 7 11 9 -2 14 -9 4 -16 1 -16 -4 0 -6 -9 -9
-20 -6 -11 3 -20 1 -20 -4 0 -15 -27 -10 -41 7 -11 14 -11 18 4 29 16 12 16
13 -2 18 -11 2 -24 0 -30 -6 -6 -6 -15 -4 -27 8 -14 14 -15 21 -5 36 6 11 9
24 6 29 -4 6 -1 10 4 10 6 0 11 10 11 23 -1 21 -1 22 -15 3 -13 -17 -15 -17
-15 -3 0 17 32 39 49 35 5 -2 9 0 10 5 1 4 -2 7 -5 6 -4 0 -11 5 -15 13 -7 10
-9 10 -9 1z"/>
<path d="M6900 6829 c0 -5 5 -7 10 -4 6 3 10 8 10 11 0 2 -4 4 -10 4 -5 0 -10
-5 -10 -11z"/>
<path d="M5754 6812 c-12 -8 -26 -42 -17 -42 3 0 14 9 24 21 10 12 23 18 30
13 9 -5 7 -11 -6 -21 -11 -7 -14 -13 -8 -13 7 0 14 4 17 9 5 7 41 8 41 1 0 -1
8 -3 18 -5 15 -3 16 -1 6 11 -6 8 -8 18 -4 22 4 4 10 2 12 -4 2 -6 10 -20 18
-30 14 -18 14 -18 15 2 0 33 -25 49 -56 35 -17 -7 -31 -8 -44 -1 -22 12 -31
12 -46 2z"/>
<path d="M6506 6791 c-3 -4 6 -6 19 -3 14 2 25 6 25 8 0 8 -39 4 -44 -5z"/>
<path d="M7048 6793 c7 -3 16 -2 19 1 4 3 -2 6 -13 5 -11 0 -14 -3 -6 -6z"/>
<path d="M5691 6749 c-23 -9 -29 -47 -9 -67 9 -9 9 -15 0 -24 -16 -16 -15 -55
1 -65 15 -10 117 -11 117 0 0 4 -11 7 -25 7 -14 0 -25 5 -25 11 0 6 -7 3 -16
-5 -8 -9 -20 -16 -26 -16 -6 0 -8 3 -5 7 4 3 -1 12 -11 19 -15 12 -15 15 -2
24 26 17 47 12 24 -6 -18 -14 -18 -15 4 -4 23 11 21 30 -4 30 -16 0 -19 16 -4
25 5 3 7 12 3 21 -4 11 -9 12 -19 3 -8 -7 -14 -7 -14 -1 0 15 57 35 77 28 14
-6 15 -5 6 5 -15 15 -43 18 -72 8z"/>
<path d="M5785 6750 c-3 -5 -1 -10 4 -10 6 0 11 5 11 10 0 6 -2 10 -4 10 -3 0
-8 -4 -11 -10z"/>
<path d="M5915 6750 c-3 -6 5 -15 19 -22 26 -11 35 -28 16 -28 -5 0 -10 6 -10
13 0 8 -3 7 -10 -3 -6 -9 -5 -19 3 -29 9 -11 9 -15 -2 -19 -10 -3 -8 -8 8 -17
21 -11 21 -13 7 -27 -8 -9 -12 -18 -9 -22 4 -3 -1 -6 -10 -6 -9 0 -18 4 -21 8
-6 9 -64 4 -70 -7 -6 -9 107 -7 122 2 15 10 16 49 0 65 -8 8 -8 15 1 26 7 8
11 25 9 37 -3 23 -43 45 -53 29z"/>
<path d="M5925 6630 c3 -5 8 -10 11 -10 2 0 4 5 4 10 0 6 -5 10 -11 10 -5 0
-7 -4 -4 -10z"/>
<path d="M5891 6568 c0 -10 -3 -18 -5 -18 -2 0 -12 -3 -21 -6 -9 -4 -15 -3
-13 2 3 8 -6 16 -14 13 -21 -6 -38 -5 -38 2 0 4 -7 6 -16 2 -13 -5 -13 -7 -2
-14 10 -7 9 -9 -4 -9 -9 0 -21 8 -27 17 -5 10 -12 15 -16 12 -3 -3 3 -17 14
-30 16 -21 22 -22 45 -11 20 9 32 9 51 0 21 -9 29 -9 41 4 9 9 14 24 11 34 -4
17 -5 17 -6 2z"/>
<path d="M7130 7355 c0 -14 5 -25 10 -25 6 0 10 11 10 25 0 14 -4 25 -10 25
-5 0 -10 -11 -10 -25z"/>
<path d="M7127 7240 c-3 -11 -1 -23 4 -26 5 -3 9 6 9 20 0 31 -6 34 -13 6z"/>
<path d="M11333 8703 c-28 -30 -73 -122 -93 -189 l-12 -41 -207 -6 c-410 -11
-728 -96 -948 -253 -208 -148 -268 -368 -163 -600 88 -195 288 -285 710 -320
101 -8 186 -17 188 -19 2 -2 -8 -36 -21 -77 -14 -40 -78 -226 -142 -413 -64
-187 -168 -488 -230 -670 -160 -469 -185 -538 -258 -740 -91 -249 -135 -367
-139 -370 -2 -1 -36 -12 -75 -24 -59 -17 -73 -25 -73 -41 0 -19 8 -20 230 -20
192 0 230 2 230 14 0 12 -32 26 -147 61 -8 3 -3 29 19 87 16 46 37 104 46 131
l15 47 261 0 261 0 43 -119 c23 -65 42 -124 42 -129 0 -6 -31 -20 -70 -31 -56
-17 -70 -26 -70 -41 0 -19 8 -20 296 -20 273 0 295 1 292 17 -2 12 -26 24 -73
39 l-70 22 -37 93 c-20 52 -127 335 -237 629 l-199 535 -91 3 c-50 1 -91 4
-91 6 0 4 83 226 219 586 62 162 123 325 137 362 l26 68 81 -5 c45 -3 157 -10
249 -15 531 -32 800 -156 919 -427 17 -37 28 -56 24 -40 -10 47 -54 131 -95
180 -166 202 -448 289 -1013 314 -81 3 -149 9 -151 12 -2 3 24 80 58 171 191
506 290 766 324 855 l39 100 34 -3 c106 -11 267 -51 368 -91 40 -16 57 -19 65
-11 8 8 6 15 -7 25 -33 24 -206 75 -323 95 -65 11 -119 21 -120 23 -2 1 10 40
27 85 40 113 39 182 -3 182 -10 0 -31 -12 -45 -27z m35 -82 c2 -17 -6 -61 -18
-97 l-22 -66 -37 7 c-20 4 -37 8 -39 10 -2 1 9 32 24 69 44 112 85 146 92 77z
m-164 -189 c5 -9 5 -11 -124 -382 -50 -146 -128 -371 -172 -500 -44 -129 -84
-239 -89 -244 -11 -13 -263 8 -412 34 -330 57 -476 179 -519 432 -34 194 86
374 331 498 161 81 448 149 686 163 115 7 294 6 299 -1z m106 -16 c0 -19 -54
-150 -74 -181 -9 -14 -23 -25 -31 -25 -28 0 -28 48 -1 135 l27 85 39 0 c28 0
40 -4 40 -14z m-727 -2581 c25 -71 68 -195 97 -275 65 -182 69 -197 62 -204
-7 -8 -427 -8 -434 0 -4 3 10 49 29 102 94 261 127 354 156 435 16 48 34 84
38 80 4 -4 27 -66 52 -138z"/>
<path d="M12187 6715 c3 -27 7 -52 9 -54 7 -8 2 54 -6 79 -6 17 -7 9 -3 -25z"/>
<path d="M12203 6545 c0 -38 2 -53 4 -32 2 20 2 52 0 70 -2 17 -4 1 -4 -38z"/>
<path d="M12191 6444 c0 -11 3 -14 6 -6 3 7 2 16 -1 19 -3 4 -6 -2 -5 -13z"/>
<path d="M12181 6404 c0 -11 3 -14 6 -6 3 7 2 16 -1 19 -3 4 -6 -2 -5 -13z"/>
<path d="M3236 6023 c-49 -131 -99 -267 -113 -303 -13 -36 -33 -87 -43 -115
-10 -27 -39 -104 -63 -170 -25 -66 -72 -191 -104 -277 -51 -137 -61 -158 -83
-163 -102 -24 -130 -36 -130 -55 0 -19 8 -20 231 -20 210 0 230 2 227 17 -3
17 -84 51 -125 52 -13 1 -23 5 -23 9 0 5 20 64 45 132 25 68 45 125 45 127 0
2 118 2 262 1 l261 -3 43 -120 c24 -66 43 -123 43 -127 1 -4 -18 -12 -41 -18
-92 -24 -108 -31 -108 -51 0 -18 11 -19 301 -19 279 0 300 1 297 17 -2 12 -27
25 -78 41 l-75 23 -48 132 c-48 128 -327 878 -389 1045 l-31 82 -107 0 -106 0
-88 -237z m263 -416 c45 -125 81 -234 81 -242 0 -13 -33 -15 -214 -15 -118 0
-217 4 -220 9 -5 7 154 464 206 595 11 29 12 28 39 -45 15 -41 64 -177 108
-302z"/>
<path d="M7629 6233 c-6 -15 -94 -251 -195 -523 -244 -651 -263 -702 -266
-705 -2 -1 -36 -12 -75 -24 -59 -17 -73 -25 -73 -41 0 -19 8 -20 230 -20 192
0 230 2 230 14 0 12 -35 27 -147 61 -10 3 33 145 72 233 l15 32 258 0 258 0
45 -127 45 -128 -73 -23 c-58 -18 -73 -27 -73 -42 0 -19 8 -20 295 -20 282 0
295 1 295 19 0 15 -15 22 -71 37 -39 10 -74 25 -79 34 -5 9 -65 167 -133 351
-164 437 -224 600 -254 679 -13 36 -37 99 -52 140 l-27 75 -107 3 -107 3 -11
-28z m74 -313 c9 -25 41 -117 72 -205 110 -311 123 -350 118 -357 -5 -9 -427
-11 -435 -2 -4 3 5 36 18 72 14 37 64 176 112 309 48 133 90 239 93 235 4 -4
14 -27 22 -52z"/>
<path d="M1515 6241 c-11 -19 4 -29 75 -47 l70 -18 -2 -590 -3 -589 -72 -20
c-58 -15 -73 -23 -73 -38 0 -18 12 -19 300 -19 289 0 300 1 300 19 0 16 -14
23 -75 37 l-75 18 0 222 0 222 198 4 197 3 67 32 c86 41 151 106 191 191 26
56 31 82 35 163 9 203 -68 329 -239 391 -62 22 -75 23 -476 26 -282 2 -413 0
-418 -7z m690 -95 c62 -19 100 -57 125 -124 54 -142 21 -370 -63 -444 -44 -39
-83 -48 -197 -48 l-110 0 0 315 0 315 98 0 c57 0 119 -6 147 -14z"/>
<path d="M8550 6232 c0 -15 15 -23 73 -39 l72 -19 3 -587 2 -586 -42 -11
c-106 -28 -118 -33 -118 -52 0 -17 15 -18 306 -18 284 0 305 1 302 17 -2 12
-26 24 -78 39 l-75 21 0 244 0 244 75 3 76 3 144 -285 145 -286 193 0 c182 0
192 1 192 19 0 15 -14 22 -67 36 -38 10 -73 23 -79 29 -6 6 -32 49 -57 96 -25
47 -82 153 -127 235 -45 83 -82 154 -83 158 -1 5 23 18 53 29 152 57 240 187
240 354 0 176 -80 303 -222 350 -47 15 -106 18 -490 21 -426 4 -438 4 -438
-15z m735 -102 c84 -42 117 -115 117 -253 -1 -110 -24 -182 -75 -233 -51 -51
-112 -66 -243 -62 l-89 3 -3 275 c-1 151 0 281 3 289 4 11 29 13 123 9 100 -3
126 -8 167 -28z"/>
<path d="M8300 4703 c0 -11 8 -12 36 -7 32 6 36 5 30 -12 -9 -32 -56 -235 -56
-245 0 -6 4 -8 9 -4 5 3 29 1 54 -4 82 -19 150 18 150 81 0 23 -7 38 -25 51
l-25 19 23 23 c31 31 31 70 2 89 -13 8 -61 16 -110 19 -72 4 -88 2 -88 -10z
m164 -9 c27 -10 38 -41 25 -66 -16 -31 -28 -38 -66 -38 -18 0 -33 -4 -33 -10
0 -5 15 -10 33 -10 45 0 77 -25 77 -59 0 -52 -71 -86 -130 -61 -41 17 -41 31
6 198 13 47 17 52 43 52 16 0 37 -3 45 -6z"/>
<path d="M8672 4700 c-90 -55 -107 -204 -28 -255 36 -24 108 -21 152 6 86 53
99 200 22 253 -32 22 -106 20 -146 -4z m147 -26 c16 -20 21 -41 21 -83 0 -76
-31 -123 -92 -140 -77 -22 -128 17 -128 97 0 94 50 152 131 152 39 0 51 -4 68
-26z"/>
<path d="M9142 4622 c-23 -70 -40 -107 -63 -130 -36 -36 -74 -50 -98 -35 -22
15 -18 91 8 172 12 35 21 68 21 72 0 5 -21 9 -46 9 -30 0 -43 -4 -38 -11 3 -6
17 -8 31 -4 23 5 25 4 21 -22 -3 -15 -16 -63 -29 -106 -21 -72 -22 -81 -8
-105 21 -38 69 -41 120 -8 21 15 39 32 39 39 1 6 9 -4 18 -23 16 -33 20 -35
82 -41 71 -6 113 5 144 39 18 21 71 200 61 210 -10 10 -16 -5 -41 -99 -17 -68
-31 -100 -50 -116 -30 -27 -90 -32 -80 -8 4 12 2 13 -12 7 -9 -5 -30 -8 -47
-8 l-30 1 1 60 c1 51 18 118 49 188 5 12 3 17 -8 17 -9 0 -25 -32 -45 -98z"/>
<path d="M9270 4703 c-48 -25 -60 -63 -35 -111 11 -20 29 -38 40 -40 19 -4 19
-3 -2 19 -34 38 -38 72 -11 103 26 30 32 31 183 22 55 -3 103 -6 107 -6 7 0 7
2 -22 -130 -12 -52 -26 -102 -31 -112 -7 -14 -6 -18 5 -18 9 0 18 10 21 23 3
12 16 71 29 131 13 59 30 112 37 117 8 5 12 9 9 9 -3 0 -70 3 -150 5 -125 4
-150 3 -180 -12z"/>
<path d="M9735 4707 c-36 -17 -60 -43 -74 -79 -16 -43 4 -41 23 2 43 97 171
104 196 11 16 -59 3 -117 -36 -158 -48 -51 -71 -43 -113 36 l-34 65 -23 -28
c-13 -15 -24 -36 -24 -47 0 -28 53 -79 81 -79 13 0 40 -12 61 -26 42 -29 126
-37 153 -14 27 23 15 28 -22 9 -42 -20 -76 -17 -113 11 l-25 19 25 9 c91 35
132 176 72 243 -33 37 -98 48 -147 26z m0 -255 c-2 -2 -13 -1 -24 3 -28 9 -44
41 -36 73 6 25 7 24 35 -24 15 -27 26 -51 25 -52z"/>
<path d="M9970 4701 c0 -9 8 -11 24 -7 14 3 27 2 30 -3 3 -4 -6 -48 -19 -97
-30 -107 -31 -126 -7 -147 31 -28 78 -21 119 17 l37 33 15 -31 c20 -40 66 -47
102 -16 22 19 22 20 2 11 -34 -17 -71 -13 -83 8 -11 21 5 105 35 190 18 51 18
61 5 61 -5 0 -19 -33 -31 -72 -40 -137 -81 -190 -146 -192 -37 -1 -38 0 -41
38 -2 23 8 75 23 124 14 46 24 86 21 89 -2 3 -23 6 -45 6 -29 2 -41 -2 -41
-12z"/>
<path d="M10295 4712 c-15 -15 -1 -22 30 -16 24 4 35 2 35 -5 0 -24 -23 -101
-29 -101 -4 0 -7 -15 -7 -32 0 -18 -4 -52 -8 -75 -8 -39 -7 -42 15 -47 66 -15
154 -9 174 10 20 21 14 27 -16 16 -49 -18 -124 -23 -143 -9 -17 13 -18 19 -6
65 l12 51 71 3 c39 2 72 8 74 13 2 6 -24 9 -68 7 -61 -3 -71 -1 -66 11 3 9 11
35 17 58 l11 42 57 -6 c31 -3 64 -7 72 -8 8 -2 15 3 15 11 0 12 -20 15 -117
16 -64 1 -120 -1 -123 -4z"/>
</g>
</svg>
